<mxfile host="app.diagrams.net" agent="Mozilla/5.0 (Windows NT 10.0; Win64; x64) AppleWebKit/537.36 (KHTML, like Gecko) Chrome/131.0.0.0 Safari/537.36 Edg/131.0.0.0" version="25.0.3">
  <diagram id="C5RBs43oDa-KdzZeNtuy" name="Page-1">
    <mxGraphModel dx="1068" dy="443" grid="1" gridSize="10" guides="1" tooltips="1" connect="1" arrows="1" fold="1" page="1" pageScale="1" pageWidth="827" pageHeight="1169" math="0" shadow="0">
      <root>
        <mxCell id="WIyWlLk6GJQsqaUBKTNV-0" />
        <mxCell id="WIyWlLk6GJQsqaUBKTNV-1" parent="WIyWlLk6GJQsqaUBKTNV-0" />
        <mxCell id="zkfFHV4jXpPFQw0GAbJ--0" value="Traveler" style="swimlane;fontStyle=0;align=center;verticalAlign=top;childLayout=stackLayout;horizontal=1;startSize=26;horizontalStack=0;resizeParent=1;resizeLast=0;collapsible=1;marginBottom=0;rounded=0;shadow=0;strokeWidth=1;" parent="WIyWlLk6GJQsqaUBKTNV-1" vertex="1">
          <mxGeometry x="48" y="30" width="160" height="220" as="geometry">
            <mxRectangle x="220" y="120" width="160" height="26" as="alternateBounds" />
          </mxGeometry>
        </mxCell>
        <mxCell id="zkfFHV4jXpPFQw0GAbJ--1" value="-userName: String&#xa;-password: String&#xa;-firstname: String&#xa;-lastname: String&#xa;-email: String&#xa;-originCountry: String&#xa;" style="text;align=left;verticalAlign=top;spacingLeft=4;spacingRight=4;overflow=hidden;rotatable=0;points=[[0,0.5],[1,0.5]];portConstraint=eastwest;" parent="zkfFHV4jXpPFQw0GAbJ--0" vertex="1">
          <mxGeometry y="26" width="160" height="120" as="geometry" />
        </mxCell>
        <mxCell id="zkfFHV4jXpPFQw0GAbJ--4" value="" style="line;html=1;strokeWidth=1;align=left;verticalAlign=middle;spacingTop=-1;spacingLeft=3;spacingRight=3;rotatable=0;labelPosition=right;points=[];portConstraint=eastwest;" parent="zkfFHV4jXpPFQw0GAbJ--0" vertex="1">
          <mxGeometry y="146" width="160" height="6" as="geometry" />
        </mxCell>
        <mxCell id="zkfFHV4jXpPFQw0GAbJ--5" value="+getId(): int&#xa;+saveOrUpdate(): boolean&#xa;&#xa;&#xa;Â " style="text;align=left;verticalAlign=top;spacingLeft=4;spacingRight=4;overflow=hidden;rotatable=0;points=[[0,0.5],[1,0.5]];portConstraint=eastwest;fontColor=#000000;" parent="zkfFHV4jXpPFQw0GAbJ--0" vertex="1">
          <mxGeometry y="152" width="160" height="68" as="geometry" />
        </mxCell>
        <mxCell id="6QLQ3uW720AcvR_tzlIk-1" value="CreationSchedule" style="swimlane;fontStyle=0;align=center;verticalAlign=top;childLayout=stackLayout;horizontal=1;startSize=26;horizontalStack=0;resizeParent=1;resizeLast=0;collapsible=1;marginBottom=0;rounded=0;shadow=0;strokeWidth=1;" parent="WIyWlLk6GJQsqaUBKTNV-1" vertex="1">
          <mxGeometry x="740" y="30" width="250" height="159" as="geometry">
            <mxRectangle x="550" y="140" width="160" height="26" as="alternateBounds" />
          </mxGeometry>
        </mxCell>
        <mxCell id="6QLQ3uW720AcvR_tzlIk-2" value="" style="line;html=1;strokeWidth=1;align=left;verticalAlign=middle;spacingTop=-1;spacingLeft=3;spacingRight=3;rotatable=0;labelPosition=right;points=[];portConstraint=eastwest;" parent="6QLQ3uW720AcvR_tzlIk-1" vertex="1">
          <mxGeometry y="26" width="250" height="24" as="geometry" />
        </mxCell>
        <mxCell id="zXE7DQCdoMgi_iKqW7go-1" value="&lt;div&gt;+fetchDestinations():List&amp;lt;String&amp;gt;&lt;/div&gt;&lt;div&gt;+fetchTypes(): List&amp;lt;String&amp;gt;&lt;span style=&quot;background-color: initial;&quot;&gt;&lt;br&gt;&lt;/span&gt;&lt;/div&gt;&lt;div&gt;&lt;span style=&quot;background-color: initial;&quot;&gt;+fetchBudgets():List&amp;lt;String&amp;gt;&lt;/span&gt;&lt;/div&gt;&lt;div&gt;&lt;span style=&quot;background-color: initial;&quot;&gt;+getDestinationInfo(): List&amp;lt;Object&amp;gt;&lt;/span&gt;&lt;/div&gt;&lt;div&gt;&lt;span style=&quot;background-color: initial;&quot;&gt;+&lt;/span&gt;getIdFromDatabase(): int&lt;/div&gt;&lt;div&gt;+getTypesIdFromDatabase(): List&amp;lt;Integer&amp;gt;&lt;/div&gt;&lt;div&gt;&lt;span style=&quot;background-color: initial;&quot;&gt;&amp;nbsp;&lt;/span&gt;&lt;br&gt;&lt;/div&gt;&lt;div&gt;&lt;br&gt;&lt;/div&gt;" style="text;whiteSpace=wrap;html=1;" parent="6QLQ3uW720AcvR_tzlIk-1" vertex="1">
          <mxGeometry y="50" width="250" height="100" as="geometry" />
        </mxCell>
        <mxCell id="NLHQeGFv5M9r62Dl8d4k-0" value="Activity" style="swimlane;fontStyle=0;align=center;verticalAlign=top;childLayout=stackLayout;horizontal=1;startSize=26;horizontalStack=0;resizeParent=1;resizeLast=0;collapsible=1;marginBottom=0;rounded=0;shadow=0;strokeWidth=1;" parent="WIyWlLk6GJQsqaUBKTNV-1" vertex="1">
          <mxGeometry x="780" y="230" width="190" height="140" as="geometry">
            <mxRectangle x="220" y="120" width="160" height="26" as="alternateBounds" />
          </mxGeometry>
        </mxCell>
        <mxCell id="NLHQeGFv5M9r62Dl8d4k-1" value="-activityId: int&#xa;-activityName: String&#xa;-details: String&#xa;-startTime: String&#xa;-endTime: String&#xa;&#xa;" style="text;align=left;verticalAlign=top;spacingLeft=4;spacingRight=4;overflow=hidden;rotatable=0;points=[[0,0.5],[1,0.5]];portConstraint=eastwest;" parent="NLHQeGFv5M9r62Dl8d4k-0" vertex="1">
          <mxGeometry y="26" width="190" height="94" as="geometry" />
        </mxCell>
        <mxCell id="NLHQeGFv5M9r62Dl8d4k-2" value="" style="line;html=1;strokeWidth=1;align=left;verticalAlign=middle;spacingTop=-1;spacingLeft=3;spacingRight=3;rotatable=0;labelPosition=right;points=[];portConstraint=eastwest;" parent="NLHQeGFv5M9r62Dl8d4k-0" vertex="1">
          <mxGeometry y="120" width="190" height="6" as="geometry" />
        </mxCell>
        <mxCell id="NLHQeGFv5M9r62Dl8d4k-5" value="*" style="text;html=1;strokeColor=none;fillColor=none;align=center;verticalAlign=middle;whiteSpace=wrap;rounded=0;" parent="WIyWlLk6GJQsqaUBKTNV-1" vertex="1">
          <mxGeometry x="208" y="120" width="20" height="10" as="geometry" />
        </mxCell>
        <mxCell id="-IbQH_iGW6TtNt1lRf_a-13" value="Schedule" style="swimlane;fontStyle=0;align=center;verticalAlign=top;childLayout=stackLayout;horizontal=1;startSize=26;horizontalStack=0;resizeParent=1;resizeLast=0;collapsible=1;marginBottom=0;rounded=0;shadow=0;strokeWidth=1;" parent="WIyWlLk6GJQsqaUBKTNV-1" vertex="1">
          <mxGeometry x="268.5" y="29" width="381.5" height="311" as="geometry">
            <mxRectangle x="220" y="120" width="160" height="26" as="alternateBounds" />
          </mxGeometry>
        </mxCell>
        <mxCell id="-IbQH_iGW6TtNt1lRf_a-15" value="" style="line;html=1;strokeWidth=1;align=left;verticalAlign=middle;spacingTop=-1;spacingLeft=3;spacingRight=3;rotatable=0;labelPosition=right;points=[];portConstraint=eastwest;" parent="-IbQH_iGW6TtNt1lRf_a-13" vertex="1">
          <mxGeometry y="26" width="381.5" height="24" as="geometry" />
        </mxCell>
        <mxCell id="-IbQH_iGW6TtNt1lRf_a-16" value="+searchActivities(): List&lt;Activity&gt;&#xa;+assignActivitiesToTimeSlots(): Map&lt;Integer,Map&lt;String, Activity&gt;&gt;&#xa;&#xa;+saveSchedule():int&#xa;-generateScheduleId():int&#xa;-saveInSchedules():void&#xa;-saveScheduleForUser():void&#xa;&#xa;+getScheduleForUser(): Map&lt;Integer,Map&lt;String, Activity&gt;&gt;&#xa;+findDaysFromScheduleByUser: int&#xa;+saveFeedback(): boolean&#xa;+getComment(): String&#xa;+getRating(): int&#xa;+getFullSchedule(): Map&lt;Integer,List&lt;Activity&gt;&gt;&#xa;&#xa;+getPastSchedules(): List&lt;Map&lt;String, Object&gt;&gt;&#xa;-hasUserProgram(): boolean&#xa;" style="text;align=left;verticalAlign=top;spacingLeft=4;spacingRight=4;overflow=hidden;rotatable=0;points=[[0,0.5],[1,0.5]];portConstraint=eastwest;" parent="-IbQH_iGW6TtNt1lRf_a-13" vertex="1">
          <mxGeometry y="50" width="381.5" height="260" as="geometry" />
        </mxCell>
        <mxCell id="AMTD7k4z9uEYQ9Q1rBHf-5" value="" style="endArrow=none;html=1;rounded=0;exitX=0;exitY=0.5;exitDx=0;exitDy=0;" parent="WIyWlLk6GJQsqaUBKTNV-1" source="NLHQeGFv5M9r62Dl8d4k-1" edge="1">
          <mxGeometry width="50" height="50" relative="1" as="geometry">
            <mxPoint x="449" y="338" as="sourcePoint" />
            <mxPoint x="648" y="302" as="targetPoint" />
          </mxGeometry>
        </mxCell>
        <mxCell id="AMTD7k4z9uEYQ9Q1rBHf-6" value="contains" style="text;html=1;strokeColor=none;fillColor=none;align=center;verticalAlign=middle;whiteSpace=wrap;rounded=0;" parent="WIyWlLk6GJQsqaUBKTNV-1" vertex="1">
          <mxGeometry x="690" y="275" width="60" height="30" as="geometry" />
        </mxCell>
        <mxCell id="AMTD7k4z9uEYQ9Q1rBHf-7" value="*" style="text;html=1;strokeColor=none;fillColor=none;align=center;verticalAlign=middle;whiteSpace=wrap;rounded=0;" parent="WIyWlLk6GJQsqaUBKTNV-1" vertex="1">
          <mxGeometry x="650" y="280" width="20" height="20" as="geometry" />
        </mxCell>
        <mxCell id="AMTD7k4z9uEYQ9Q1rBHf-8" value="*" style="text;html=1;strokeColor=none;fillColor=none;align=center;verticalAlign=middle;whiteSpace=wrap;rounded=0;" parent="WIyWlLk6GJQsqaUBKTNV-1" vertex="1">
          <mxGeometry x="760" y="280" width="20" height="20" as="geometry" />
        </mxCell>
        <mxCell id="VtjyG6cp_sSnCIvycA6P-0" value="TravelerService" style="swimlane;fontStyle=0;align=center;verticalAlign=top;childLayout=stackLayout;horizontal=1;startSize=26;horizontalStack=0;resizeParent=1;resizeLast=0;collapsible=1;marginBottom=0;rounded=0;shadow=0;strokeWidth=1;" parent="WIyWlLk6GJQsqaUBKTNV-1" vertex="1">
          <mxGeometry x="50" y="300" width="160" height="130" as="geometry">
            <mxRectangle x="220" y="120" width="160" height="26" as="alternateBounds" />
          </mxGeometry>
        </mxCell>
        <mxCell id="VtjyG6cp_sSnCIvycA6P-2" value="" style="line;html=1;strokeWidth=1;align=left;verticalAlign=middle;spacingTop=-1;spacingLeft=3;spacingRight=3;rotatable=0;labelPosition=right;points=[];portConstraint=eastwest;" parent="VtjyG6cp_sSnCIvycA6P-0" vertex="1">
          <mxGeometry y="26" width="160" height="34" as="geometry" />
        </mxCell>
        <mxCell id="VtjyG6cp_sSnCIvycA6P-3" value="+getTraveler():Traveler&#xa;-userExists():boolean&#xa;&#xa;+createTraveler():Traveler&#xa;&#xa;&#xa;Â " style="text;align=left;verticalAlign=top;spacingLeft=4;spacingRight=4;overflow=hidden;rotatable=0;points=[[0,0.5],[1,0.5]];portConstraint=eastwest;fontColor=#000000;" parent="VtjyG6cp_sSnCIvycA6P-0" vertex="1">
          <mxGeometry y="60" width="160" height="70" as="geometry" />
        </mxCell>
        <mxCell id="VtjyG6cp_sSnCIvycA6P-9" value="" style="endArrow=none;html=1;rounded=0;exitX=0.5;exitY=0;exitDx=0;exitDy=0;" parent="WIyWlLk6GJQsqaUBKTNV-1" source="VtjyG6cp_sSnCIvycA6P-0" edge="1">
          <mxGeometry width="50" height="50" relative="1" as="geometry">
            <mxPoint x="379" y="290" as="sourcePoint" />
            <mxPoint x="129" y="250" as="targetPoint" />
          </mxGeometry>
        </mxCell>
        <mxCell id="VtjyG6cp_sSnCIvycA6P-12" value="" style="endArrow=none;html=1;rounded=0;exitX=0;exitY=0.5;exitDx=0;exitDy=0;entryX=1;entryY=0.198;entryDx=0;entryDy=0;entryPerimeter=0;" parent="WIyWlLk6GJQsqaUBKTNV-1" source="zXE7DQCdoMgi_iKqW7go-1" target="-IbQH_iGW6TtNt1lRf_a-16" edge="1">
          <mxGeometry width="50" height="50" relative="1" as="geometry">
            <mxPoint x="539" y="127.99999999999989" as="sourcePoint" />
            <mxPoint x="479" y="128" as="targetPoint" />
          </mxGeometry>
        </mxCell>
        <mxCell id="VtjyG6cp_sSnCIvycA6P-13" value="" style="endArrow=none;html=1;rounded=0;exitX=1.002;exitY=0.628;exitDx=0;exitDy=0;exitPerimeter=0;" parent="WIyWlLk6GJQsqaUBKTNV-1" source="zkfFHV4jXpPFQw0GAbJ--1" edge="1">
          <mxGeometry width="50" height="50" relative="1" as="geometry">
            <mxPoint x="379" y="190" as="sourcePoint" />
            <mxPoint x="269" y="131" as="targetPoint" />
          </mxGeometry>
        </mxCell>
        <mxCell id="VtjyG6cp_sSnCIvycA6P-14" value="have" style="text;html=1;strokeColor=none;fillColor=none;align=center;verticalAlign=middle;whiteSpace=wrap;rounded=0;" parent="WIyWlLk6GJQsqaUBKTNV-1" vertex="1">
          <mxGeometry x="210" y="100" width="60" height="30" as="geometry" />
        </mxCell>
        <mxCell id="VtjyG6cp_sSnCIvycA6P-16" value="*" style="text;html=1;strokeColor=none;fillColor=none;align=center;verticalAlign=middle;whiteSpace=wrap;rounded=0;" parent="WIyWlLk6GJQsqaUBKTNV-1" vertex="1">
          <mxGeometry x="250.5" y="116" width="20" height="20" as="geometry" />
        </mxCell>
      </root>
    </mxGraphModel>
  </diagram>
</mxfile>
